<svg height="512" viewBox="0 0 512 512" width="512" xmlns="http://www.w3.org/2000/svg"><g id="solid"><path d="m435.058 176-11.058.015v64a32 32 0 0 1 -32 32h-.014a32.04 32.04 0 0 1 -31.986-32v-64.015h-11.056l-28.944 57.889v42.8l37.657 37.657a8 8 0 0 1 2.343 5.654v152h16v-144a8 8 0 0 1 8-8h16a8 8 0 0 1 0 16h-8v136h32.02l.382-152.02a8 8 0 0 1 2.315-5.608l37.283-37.662v-42.821z"/><path d="m280 160v-48h-120v32.026a39.837 39.837 0 0 1 7.2 15.974zm-72-40h16a8 8 0 0 1 0 16h-16a8 8 0 0 1 0-16z"/><circle cx="128" cy="168" r="24"/><path d="m304.819 176h-137.619a39.835 39.835 0 0 1 -7.217 16h152.051a40.2 40.2 0 0 1 -7.215-16z"/><path d="m128 128a39.759 39.759 0 0 1 16 3.35v-19.35h-.038-37.962a42.047 42.047 0 0 0 -42 42v6h24.805a40.067 40.067 0 0 1 39.195-32z"/><path d="m280 56h-64.362a25.971 25.971 0 0 0 -19.738 9.079l-26.506 30.921h110.606z"/><path d="m320 168a24.078 24.078 0 0 0 6.733 16.646l10.112-20.224a8 8 0 0 1 7.155-4.422h22.624a24 24 0 0 0 -46.624 8z"/><path d="m376 176h32v16h-32z"/><path d="m48 456h296v16h-296z"/><path d="m304 252.415-55.644 60.1a32.258 32.258 0 0 1 9.791 9.076l45.853-49.526z"/><path d="m344 128a40.067 40.067 0 0 1 39.2 32h24.8v-25.167a15.912 15.912 0 0 0 -8.845-14.311l-17.044-8.522h-86.111v48h8.805a40.067 40.067 0 0 1 39.195-32z"/><path d="m315.056 208h-267.056v16l259.045.022z"/><path d="m340.687 440-90.63-90.63a8 8 0 0 1 -2.249-6.884 16.013 16.013 0 0 0 -18.293-18.294 8.007 8.007 0 0 1 -6.885-2.248l-81.93-81.936h-17.38l90.624 90.623a8 8 0 0 1 2.248 6.885 16.318 16.318 0 0 0 -.192 2.484 16.014 16.014 0 0 0 18.486 15.808 8 8 0 0 1 6.884 2.249l81.943 81.943zm-108.687-92a8 8 0 1 1 8-8 8 8 0 0 1 -8 8z"/><path d="m205.854 358.413-75.544 81.587h18.195l67.139-72.51a32.257 32.257 0 0 1 -9.79-9.077z"/><path d="m354.843 69.1a26.055 26.055 0 0 0 -22.574-13.1h-36.269v40h74.214z"/></g></svg>